<mxfile host="app.diagrams.net" modified="2023-07-03T22:49:58.679Z" agent="Mozilla/5.0 (Windows NT 10.0; Win64; x64) AppleWebKit/537.36 (KHTML, like Gecko) Chrome/114.0.0.0 Safari/537.36" etag="162g3SOVAZsWpks8gPrW" version="21.5.0" type="device">
  <diagram name="Page-1" id="5jWlnXlK8VyqVj7Gr_Gb">
    <mxGraphModel dx="1434" dy="802" grid="1" gridSize="10" guides="1" tooltips="1" connect="1" arrows="1" fold="1" page="1" pageScale="1" pageWidth="827" pageHeight="1169" math="0" shadow="0">
      <root>
        <mxCell id="0" />
        <mxCell id="1" parent="0" />
        <mxCell id="9by6X9X7464qb3dFA-sw-1" value="" style="rounded=0;whiteSpace=wrap;html=1;" vertex="1" parent="1">
          <mxGeometry x="100" y="150" width="280" height="500" as="geometry" />
        </mxCell>
        <mxCell id="9by6X9X7464qb3dFA-sw-3" value="0" style="html=1;shadow=0;dashed=0;shape=mxgraph.bootstrap.rrect;rSize=5;strokeColor=none;strokeWidth=1;fillColor=#6C767D;fontColor=#FFFFFF;whiteSpace=wrap;align=left;verticalAlign=middle;spacingLeft=10;fontStyle=1;fontSize=18;" vertex="1" parent="1">
          <mxGeometry x="190" y="350" width="30" height="40" as="geometry" />
        </mxCell>
        <mxCell id="9by6X9X7464qb3dFA-sw-4" value="1" style="html=1;shadow=0;dashed=0;shape=mxgraph.bootstrap.rrect;rSize=5;strokeColor=none;strokeWidth=1;fillColor=#6C767D;fontColor=#FFFFFF;whiteSpace=wrap;align=left;verticalAlign=middle;spacingLeft=10;fontStyle=1;fontSize=18;" vertex="1" parent="1">
          <mxGeometry x="240" y="350" width="30" height="40" as="geometry" />
        </mxCell>
        <mxCell id="9by6X9X7464qb3dFA-sw-6" value="+" style="html=1;shadow=0;dashed=0;shape=mxgraph.bootstrap.rrect;rSize=5;strokeColor=none;strokeWidth=1;fillColor=#6C767D;fontColor=#FFFFFF;whiteSpace=wrap;align=left;verticalAlign=middle;spacingLeft=10;fontStyle=1;fontSize=18;" vertex="1" parent="1">
          <mxGeometry x="190" y="300" width="30" height="40" as="geometry" />
        </mxCell>
        <mxCell id="9by6X9X7464qb3dFA-sw-7" value="-" style="html=1;shadow=0;dashed=0;shape=mxgraph.bootstrap.rrect;rSize=5;strokeColor=none;strokeWidth=1;fillColor=#6C767D;fontColor=#FFFFFF;whiteSpace=wrap;align=left;verticalAlign=middle;spacingLeft=10;fontStyle=1;fontSize=18;" vertex="1" parent="1">
          <mxGeometry x="240" y="300" width="30" height="40" as="geometry" />
        </mxCell>
        <mxCell id="9by6X9X7464qb3dFA-sw-8" value="*" style="html=1;shadow=0;dashed=0;shape=mxgraph.bootstrap.rrect;rSize=5;strokeColor=none;strokeWidth=1;fillColor=#6C767D;fontColor=#FFFFFF;whiteSpace=wrap;align=left;verticalAlign=middle;spacingLeft=10;fontStyle=1;fontSize=18;" vertex="1" parent="1">
          <mxGeometry x="290" y="300" width="30" height="40" as="geometry" />
        </mxCell>
        <mxCell id="9by6X9X7464qb3dFA-sw-9" value="=" style="html=1;shadow=0;dashed=0;shape=mxgraph.bootstrap.rrect;rSize=5;strokeColor=none;strokeWidth=1;fillColor=#6C767D;fontColor=#FFFFFF;whiteSpace=wrap;align=left;verticalAlign=middle;spacingLeft=10;fontStyle=1;fontSize=18;" vertex="1" parent="1">
          <mxGeometry x="290" y="350" width="30" height="40" as="geometry" />
        </mxCell>
        <mxCell id="9by6X9X7464qb3dFA-sw-10" value="" style="rounded=0;whiteSpace=wrap;html=1;" vertex="1" parent="1">
          <mxGeometry x="190" y="240" width="130" height="40" as="geometry" />
        </mxCell>
        <mxCell id="9by6X9X7464qb3dFA-sw-11" value="0" style="text;html=1;strokeColor=none;fillColor=none;align=center;verticalAlign=middle;whiteSpace=wrap;rounded=0;" vertex="1" parent="1">
          <mxGeometry x="270" y="245" width="60" height="30" as="geometry" />
        </mxCell>
        <mxCell id="9by6X9X7464qb3dFA-sw-12" value="" style="rounded=0;whiteSpace=wrap;html=1;" vertex="1" parent="1">
          <mxGeometry x="190" y="190" width="130" height="40" as="geometry" />
        </mxCell>
        <mxCell id="9by6X9X7464qb3dFA-sw-13" value="M" style="text;html=1;strokeColor=none;fillColor=none;align=center;verticalAlign=middle;whiteSpace=wrap;rounded=0;" vertex="1" parent="1">
          <mxGeometry x="120" y="195" width="60" height="30" as="geometry" />
        </mxCell>
        <mxCell id="9by6X9X7464qb3dFA-sw-14" value="Current" style="text;html=1;strokeColor=none;fillColor=none;align=center;verticalAlign=middle;whiteSpace=wrap;rounded=0;" vertex="1" parent="1">
          <mxGeometry x="120" y="240" width="60" height="30" as="geometry" />
        </mxCell>
        <mxCell id="9by6X9X7464qb3dFA-sw-15" value="+/-" style="html=1;shadow=0;dashed=0;shape=mxgraph.bootstrap.rrect;rSize=5;strokeColor=none;strokeWidth=1;fillColor=#6C767D;fontColor=#FFFFFF;whiteSpace=wrap;align=center;verticalAlign=middle;spacingLeft=0;fontStyle=1;fontSize=18;" vertex="1" parent="1">
          <mxGeometry x="190" y="400" width="30" height="40" as="geometry" />
        </mxCell>
        <mxCell id="9by6X9X7464qb3dFA-sw-16" value="M+" style="html=1;shadow=0;dashed=0;shape=mxgraph.bootstrap.rrect;rSize=5;strokeColor=none;strokeWidth=1;fillColor=#6C767D;fontColor=#FFFFFF;whiteSpace=wrap;align=center;verticalAlign=middle;spacingLeft=0;fontStyle=1;fontSize=18;" vertex="1" parent="1">
          <mxGeometry x="240" y="400" width="30" height="40" as="geometry" />
        </mxCell>
        <mxCell id="9by6X9X7464qb3dFA-sw-17" value="C" style="html=1;shadow=0;dashed=0;shape=mxgraph.bootstrap.rrect;rSize=5;strokeColor=none;strokeWidth=1;fillColor=#6C767D;fontColor=#FFFFFF;whiteSpace=wrap;align=center;verticalAlign=middle;spacingLeft=0;fontStyle=1;fontSize=18;" vertex="1" parent="1">
          <mxGeometry x="290" y="400" width="30" height="40" as="geometry" />
        </mxCell>
        <mxCell id="9by6X9X7464qb3dFA-sw-18" value="1101 (13)" style="text;html=1;strokeColor=none;fillColor=none;align=right;verticalAlign=middle;whiteSpace=wrap;rounded=0;" vertex="1" parent="1">
          <mxGeometry x="140" y="480" width="110" height="30" as="geometry" />
        </mxCell>
        <mxCell id="9by6X9X7464qb3dFA-sw-19" value="L" style="html=1;shadow=0;dashed=0;shape=mxgraph.bootstrap.rrect;rSize=5;strokeColor=none;strokeWidth=1;fillColor=#6C767D;fontColor=#FFFFFF;whiteSpace=wrap;align=center;verticalAlign=middle;spacingLeft=0;fontStyle=1;fontSize=18;" vertex="1" parent="1">
          <mxGeometry x="270" y="470" width="30" height="40" as="geometry" />
        </mxCell>
        <mxCell id="9by6X9X7464qb3dFA-sw-20" value="X" style="html=1;shadow=0;dashed=0;shape=mxgraph.bootstrap.rrect;rSize=5;strokeColor=none;strokeWidth=1;fillColor=#6C767D;fontColor=#FFFFFF;whiteSpace=wrap;align=center;verticalAlign=middle;spacingLeft=0;fontStyle=1;fontSize=18;" vertex="1" parent="1">
          <mxGeometry x="310" y="470" width="30" height="40" as="geometry" />
        </mxCell>
        <mxCell id="9by6X9X7464qb3dFA-sw-21" value="1101 (13)" style="text;html=1;strokeColor=none;fillColor=none;align=right;verticalAlign=middle;whiteSpace=wrap;rounded=0;" vertex="1" parent="1">
          <mxGeometry x="140" y="530" width="110" height="30" as="geometry" />
        </mxCell>
        <mxCell id="9by6X9X7464qb3dFA-sw-22" value="L" style="html=1;shadow=0;dashed=0;shape=mxgraph.bootstrap.rrect;rSize=5;strokeColor=none;strokeWidth=1;fillColor=#6C767D;fontColor=#FFFFFF;whiteSpace=wrap;align=center;verticalAlign=middle;spacingLeft=0;fontStyle=1;fontSize=18;" vertex="1" parent="1">
          <mxGeometry x="270" y="520" width="30" height="40" as="geometry" />
        </mxCell>
        <mxCell id="9by6X9X7464qb3dFA-sw-23" value="X" style="html=1;shadow=0;dashed=0;shape=mxgraph.bootstrap.rrect;rSize=5;strokeColor=none;strokeWidth=1;fillColor=#6C767D;fontColor=#FFFFFF;whiteSpace=wrap;align=center;verticalAlign=middle;spacingLeft=0;fontStyle=1;fontSize=18;" vertex="1" parent="1">
          <mxGeometry x="310" y="520" width="30" height="40" as="geometry" />
        </mxCell>
        <mxCell id="9by6X9X7464qb3dFA-sw-24" value="1101 (13)" style="text;html=1;strokeColor=none;fillColor=none;align=right;verticalAlign=middle;whiteSpace=wrap;rounded=0;" vertex="1" parent="1">
          <mxGeometry x="140" y="580" width="110" height="30" as="geometry" />
        </mxCell>
        <mxCell id="9by6X9X7464qb3dFA-sw-25" value="L" style="html=1;shadow=0;dashed=0;shape=mxgraph.bootstrap.rrect;rSize=5;strokeColor=none;strokeWidth=1;fillColor=#6C767D;fontColor=#FFFFFF;whiteSpace=wrap;align=center;verticalAlign=middle;spacingLeft=0;fontStyle=1;fontSize=18;" vertex="1" parent="1">
          <mxGeometry x="270" y="570" width="30" height="40" as="geometry" />
        </mxCell>
        <mxCell id="9by6X9X7464qb3dFA-sw-26" value="X" style="html=1;shadow=0;dashed=0;shape=mxgraph.bootstrap.rrect;rSize=5;strokeColor=none;strokeWidth=1;fillColor=#6C767D;fontColor=#FFFFFF;whiteSpace=wrap;align=center;verticalAlign=middle;spacingLeft=0;fontStyle=1;fontSize=18;" vertex="1" parent="1">
          <mxGeometry x="310" y="570" width="30" height="40" as="geometry" />
        </mxCell>
        <mxCell id="9by6X9X7464qb3dFA-sw-27" value="+" style="rounded=0;whiteSpace=wrap;html=1;" vertex="1" parent="1">
          <mxGeometry x="330" y="190" width="30" height="40" as="geometry" />
        </mxCell>
      </root>
    </mxGraphModel>
  </diagram>
</mxfile>
